<?xml version="1.0" encoding="utf-8"?>
<!-- Generator: Adobe Illustrator 25.0.0, SVG Export Plug-In . SVG Version: 6.00 Build 0)  -->
<svg version="1.1"
	 id="protected-folder" xmlns:cc="http://creativecommons.org/ns#" xmlns:dc="http://purl.org/dc/elements/1.1/" xmlns:rdf="http://www.w3.org/1999/02/22-rdf-syntax-ns#" xmlns:svg="http://www.w3.org/2000/svg"
	 xmlns="http://www.w3.org/2000/svg" xmlns:xlink="http://www.w3.org/1999/xlink" x="0px" y="0px" viewBox="0 0 30 30"
	 style="enable-background:new 0 0 30 30;" xml:space="preserve">
<style type="text/css">
	.st0{fill:#fff;}
	.st1{fill:none;stroke:#fff;stroke-width:1.875;stroke-miterlimit:7.5;}
</style>
<path id="user" class="st0" d="M27.7,24.9c-3-1.2-6.3-2.6-6.6-3.5v-0.9c0.6-0.6,1.1-1.5,1.4-2.6c0.4-0.3,0.6-0.7,0.6-1.2
	c0-0.4-0.1-0.7-0.3-1v-2.1c0-2.2-1.2-3.7-4-3.7c-2.7,0-4,1.5-4,3.7v2.1c-0.2,0.3-0.3,0.6-0.3,1c0,0.5,0.3,1,0.6,1.2
	c0.3,1,0.8,1.9,1.4,2.6v0.9c-0.3,0.9-3.6,2.3-6.6,3.5c-0.3,0.1-0.4,0.3-0.4,0.6v2.4c0,0.4,0.3,0.7,0.7,0.7h17.3
	c0.4,0,0.7-0.3,0.7-0.7v-2.4C28.1,25.2,27.9,25,27.7,24.9z"/>
<path id="folder" class="st1" d="M8.2,23.4H0.9L1,2.5h9.5l3.8,3.7h14.8v17l0,0"/>
</svg>
